<?xml version="1.0" encoding="utf-8"?>
<!-- Generator: Adobe Illustrator 21.0.0, SVG Export Plug-In . SVG Version: 6.00 Build 0)  -->
<svg version="1.1" id="图层_1" xmlns="http://www.w3.org/2000/svg" xmlns:xlink="http://www.w3.org/1999/xlink" x="0px" y="0px"
	 viewBox="0 0 60 80" enable-background="new 0 0 60 80" xml:space="preserve">
<path fill="#666767" d="M16.6,28.2c0-7.1,3-13.7,8.9-19.9C27.6,6,31,5.9,33.2,8l0.1,0.1c5.5,5.2,8.7,12.4,8.7,20v9.1l4.5,4.5
	c1.7,1.7,2.5,4.2,2,6.5l-1.8,9.3c-0.4,2-2.3,3.2-4.3,2.9c-0.4-0.1-0.8-0.2-1.2-0.5l-4.7-2.8l-5.3,3.4c-1.2,0.8-2.7,0.8-3.9,0
	l-5.3-3.4L17.4,60c-1.7,1-3.9,0.5-5-1.2C12.2,58.4,12,58,12,57.6l-1.8-9.3c-0.5-2.4,0.3-4.8,2-6.5l4.5-4.5V28.2z M18.4,28.2V38l-5,5
	c-1.3,1.3-1.8,3.1-1.5,4.9l1.8,9.3c0.2,1,1.1,1.6,2.1,1.4c0.2,0,0.4-0.1,0.6-0.2l5.6-3.4l6.3,4c0.6,0.4,1.4,0.4,2,0l6.3-4l5.6,3.4
	c0.9,0.5,2,0.2,2.5-0.6c0.1-0.2,0.2-0.4,0.2-0.6l1.8-9.3c0.4-1.8-0.2-3.6-1.5-4.9l-5-5v-9.8c0-7.1-3-13.9-8.2-18.8
	c-1.4-1.4-3.7-1.5-5.1-0.1c0,0-0.1,0.1-0.1,0.1C21.2,15.3,18.4,21.6,18.4,28.2z M29.3,35.4c-3,0-5.4-2.4-5.4-5.4s2.4-5.4,5.4-5.4
	s5.4,2.4,5.4,5.4S32.3,35.4,29.3,35.4z M29.3,33.6c2,0,3.6-1.6,3.6-3.6c0-2-1.6-3.6-3.6-3.6S25.7,28,25.7,30
	C25.7,32,27.3,33.6,29.3,33.6z M28.4,62.6c0.5,0,0.9,0.4,0.9,0.9v9.1c0,0.5-0.4,0.9-0.9,0.9c-0.5,0-0.9-0.4-0.9-0.9v-9.1
	C27.5,63,27.9,62.6,28.4,62.6z M23,60.8c0.5,0,0.9,0.4,0.9,0.9v5.4c0,0.5-0.4,0.9-0.9,0.9c-0.5,0-0.9-0.4-0.9-0.9v-5.4
	C22.1,61.2,22.5,60.8,23,60.8z M35.7,62.6c0.5,0,0.9,0.4,0.9,0.9v3.6c0,0.5-0.4,0.9-0.9,0.9c-0.5,0-0.9-0.4-0.9-0.9v-3.6
	C34.8,63,35.2,62.6,35.7,62.6z"/>
</svg>
